<mxfile host="app.diagrams.net" modified="2023-07-13T11:16:59.657Z" agent="Mozilla/5.0 (Windows NT 10.0; Win64; x64; rv:109.0) Gecko/20100101 Firefox/115.0" etag="x_TOuEqRMwa9mX9xS7pR" version="21.6.2" type="github">
  <diagram name="Page-1" id="IgRoF7RVsTaWWRk1cckZ">
    <mxGraphModel dx="896" dy="566" grid="1" gridSize="10" guides="1" tooltips="1" connect="1" arrows="1" fold="1" page="1" pageScale="1" pageWidth="850" pageHeight="1100" math="0" shadow="0">
      <root>
        <mxCell id="0" />
        <mxCell id="1" parent="0" />
        <mxCell id="UDgKJiba5ccRPYknybrY-3" value="&lt;b&gt;Test&lt;/b&gt;" style="rounded=1;whiteSpace=wrap;html=1;shadow=1;gradientDirection=south;" vertex="1" parent="1">
          <mxGeometry x="40" y="440" width="120" height="60" as="geometry" />
        </mxCell>
        <mxCell id="UDgKJiba5ccRPYknybrY-28" style="edgeStyle=orthogonalEdgeStyle;rounded=0;orthogonalLoop=1;jettySize=auto;html=1;exitX=1;exitY=0.5;exitDx=0;exitDy=0;entryX=0;entryY=0.5;entryDx=0;entryDy=0;" edge="1" parent="1" source="UDgKJiba5ccRPYknybrY-6" target="UDgKJiba5ccRPYknybrY-13">
          <mxGeometry relative="1" as="geometry" />
        </mxCell>
        <mxCell id="UDgKJiba5ccRPYknybrY-6" value="&lt;b&gt;&lt;font style=&quot;font-size: 13px;&quot;&gt;Nextflow workflow&lt;/font&gt;&lt;/b&gt;" style="rounded=1;whiteSpace=wrap;html=1;shadow=1;gradientDirection=south;" vertex="1" parent="1">
          <mxGeometry x="173" y="233" width="120" height="60" as="geometry" />
        </mxCell>
        <mxCell id="UDgKJiba5ccRPYknybrY-7" value="&lt;b&gt;Result&lt;/b&gt;" style="rounded=1;whiteSpace=wrap;html=1;shadow=1;gradientDirection=south;" vertex="1" parent="1">
          <mxGeometry x="613" y="233" width="120" height="60" as="geometry" />
        </mxCell>
        <mxCell id="UDgKJiba5ccRPYknybrY-9" value="&lt;div&gt;&lt;b&gt;DRS&lt;/b&gt;&lt;/div&gt;&lt;div&gt;&lt;b&gt;&lt;br&gt;&lt;/b&gt;&lt;/div&gt;&lt;div&gt;&lt;b&gt;&lt;br&gt;&lt;/b&gt;&lt;/div&gt;&lt;div&gt;&lt;b&gt;&lt;br&gt;&lt;/b&gt;&lt;/div&gt;" style="rounded=1;whiteSpace=wrap;html=1;shadow=1;gradientDirection=south;" vertex="1" parent="1">
          <mxGeometry x="570" y="513" width="120" height="110" as="geometry" />
        </mxCell>
        <mxCell id="UDgKJiba5ccRPYknybrY-13" value="&lt;div&gt;&lt;b&gt;&lt;font style=&quot;font-size: 13px;&quot;&gt;VM&lt;/font&gt;&lt;/b&gt;&lt;/div&gt;&lt;div&gt;&lt;b&gt;&lt;font style=&quot;font-size: 13px;&quot;&gt;&lt;br&gt;&lt;/font&gt;&lt;/b&gt;&lt;/div&gt;&lt;div&gt;&lt;b&gt;&lt;font style=&quot;font-size: 13px;&quot;&gt;&lt;br&gt;&lt;/font&gt;&lt;/b&gt;&lt;/div&gt;&lt;div&gt;&lt;b&gt;&lt;font style=&quot;font-size: 13px;&quot;&gt;&lt;br&gt;&lt;/font&gt;&lt;/b&gt;&lt;/div&gt;&lt;div&gt;&lt;b&gt;&lt;font style=&quot;font-size: 13px;&quot;&gt;&lt;br&gt;&lt;/font&gt;&lt;/b&gt;&lt;/div&gt;&lt;div&gt;&lt;b&gt;&lt;font style=&quot;font-size: 13px;&quot;&gt;&lt;br&gt;&lt;/font&gt;&lt;/b&gt;&lt;/div&gt;" style="whiteSpace=wrap;html=1;aspect=fixed;shadow=1;" vertex="1" parent="1">
          <mxGeometry x="373" y="183" width="160" height="160" as="geometry" />
        </mxCell>
        <mxCell id="UDgKJiba5ccRPYknybrY-20" value="&lt;b&gt;&lt;font style=&quot;font-size: 13px;&quot;&gt;Reference Panel&lt;/font&gt;&lt;/b&gt;" style="rounded=0;whiteSpace=wrap;html=1;" vertex="1" parent="1">
          <mxGeometry x="590" y="563" width="80" height="50" as="geometry" />
        </mxCell>
        <mxCell id="UDgKJiba5ccRPYknybrY-11" value="&lt;div&gt;&lt;b&gt;WES&lt;/b&gt;&lt;/div&gt;&lt;div&gt;&lt;b&gt;&lt;br&gt;&lt;/b&gt;&lt;/div&gt;&lt;div&gt;&lt;b&gt;&lt;br&gt;&lt;/b&gt;&lt;/div&gt;" style="rounded=1;whiteSpace=wrap;html=1;shadow=1;gradientDirection=south;" vertex="1" parent="1">
          <mxGeometry x="393" y="253" width="120" height="80" as="geometry" />
        </mxCell>
        <mxCell id="UDgKJiba5ccRPYknybrY-21" value="&lt;b&gt;Starterkit&lt;/b&gt;" style="rounded=0;whiteSpace=wrap;html=1;" vertex="1" parent="1">
          <mxGeometry x="413" y="293" width="80" height="30" as="geometry" />
        </mxCell>
        <mxCell id="UDgKJiba5ccRPYknybrY-22" value="&lt;div&gt;&lt;b&gt;&lt;font style=&quot;font-size: 13px;&quot;&gt;VM&lt;/font&gt;&lt;/b&gt;&lt;/div&gt;&lt;div&gt;&lt;b&gt;&lt;font style=&quot;font-size: 13px;&quot;&gt;&lt;br&gt;&lt;/font&gt;&lt;/b&gt;&lt;/div&gt;&lt;div&gt;&lt;b&gt;&lt;font style=&quot;font-size: 13px;&quot;&gt;&lt;br&gt;&lt;/font&gt;&lt;/b&gt;&lt;/div&gt;&lt;div&gt;&lt;b&gt;&lt;font style=&quot;font-size: 13px;&quot;&gt;&lt;br&gt;&lt;/font&gt;&lt;/b&gt;&lt;/div&gt;&lt;div&gt;&lt;b&gt;&lt;font style=&quot;font-size: 13px;&quot;&gt;&lt;br&gt;&lt;/font&gt;&lt;/b&gt;&lt;/div&gt;&lt;div&gt;&lt;b&gt;&lt;font style=&quot;font-size: 13px;&quot;&gt;&lt;br&gt;&lt;/font&gt;&lt;/b&gt;&lt;/div&gt;" style="whiteSpace=wrap;html=1;aspect=fixed;shadow=1;" vertex="1" parent="1">
          <mxGeometry x="373" y="390" width="160" height="160" as="geometry" />
        </mxCell>
        <mxCell id="UDgKJiba5ccRPYknybrY-23" value="&lt;div&gt;&lt;b&gt;WES&lt;/b&gt;&lt;/div&gt;&lt;div&gt;&lt;b&gt;&lt;br&gt;&lt;/b&gt;&lt;/div&gt;&lt;div&gt;&lt;b&gt;&lt;br&gt;&lt;/b&gt;&lt;/div&gt;" style="rounded=1;whiteSpace=wrap;html=1;shadow=1;gradientDirection=south;" vertex="1" parent="1">
          <mxGeometry x="393" y="460" width="120" height="80" as="geometry" />
        </mxCell>
        <mxCell id="UDgKJiba5ccRPYknybrY-24" value="&lt;b&gt;Starterkit&lt;/b&gt;" style="rounded=0;whiteSpace=wrap;html=1;" vertex="1" parent="1">
          <mxGeometry x="413" y="500" width="80" height="30" as="geometry" />
        </mxCell>
        <mxCell id="UDgKJiba5ccRPYknybrY-29" value="" style="endArrow=classic;html=1;rounded=0;exitX=1;exitY=0.5;exitDx=0;exitDy=0;entryX=0;entryY=0.5;entryDx=0;entryDy=0;" edge="1" parent="1" source="UDgKJiba5ccRPYknybrY-13" target="UDgKJiba5ccRPYknybrY-7">
          <mxGeometry width="50" height="50" relative="1" as="geometry">
            <mxPoint x="533" y="473" as="sourcePoint" />
            <mxPoint x="583" y="423" as="targetPoint" />
          </mxGeometry>
        </mxCell>
        <mxCell id="UDgKJiba5ccRPYknybrY-32" style="edgeStyle=orthogonalEdgeStyle;rounded=0;orthogonalLoop=1;jettySize=auto;html=1;exitX=0;exitY=0.5;exitDx=0;exitDy=0;entryX=0.5;entryY=0;entryDx=0;entryDy=0;" edge="1" parent="1" source="UDgKJiba5ccRPYknybrY-6" target="UDgKJiba5ccRPYknybrY-3">
          <mxGeometry relative="1" as="geometry">
            <mxPoint x="230" y="273" as="sourcePoint" />
            <mxPoint x="310" y="273" as="targetPoint" />
          </mxGeometry>
        </mxCell>
        <mxCell id="UDgKJiba5ccRPYknybrY-33" style="edgeStyle=orthogonalEdgeStyle;rounded=0;orthogonalLoop=1;jettySize=auto;html=1;exitX=0.5;exitY=1;exitDx=0;exitDy=0;entryX=0;entryY=0.5;entryDx=0;entryDy=0;" edge="1" parent="1" source="UDgKJiba5ccRPYknybrY-6" target="UDgKJiba5ccRPYknybrY-9">
          <mxGeometry relative="1" as="geometry">
            <mxPoint x="110" y="273" as="sourcePoint" />
            <mxPoint x="170" y="463" as="targetPoint" />
          </mxGeometry>
        </mxCell>
        <mxCell id="UDgKJiba5ccRPYknybrY-34" style="edgeStyle=orthogonalEdgeStyle;rounded=0;orthogonalLoop=1;jettySize=auto;html=1;exitX=1;exitY=0.5;exitDx=0;exitDy=0;entryX=0;entryY=0.5;entryDx=0;entryDy=0;" edge="1" parent="1" source="UDgKJiba5ccRPYknybrY-6" target="UDgKJiba5ccRPYknybrY-22">
          <mxGeometry relative="1" as="geometry">
            <mxPoint x="303" y="273" as="sourcePoint" />
            <mxPoint x="383" y="273" as="targetPoint" />
          </mxGeometry>
        </mxCell>
      </root>
    </mxGraphModel>
  </diagram>
</mxfile>
